<?xml version="1.0" encoding="UTF-8" standalone="no"?>
<!-- Created with Inkscape (http://www.inkscape.org/) -->

<svg
   width="300.00003mm"
   height="300.00003mm"
   viewBox="0 0 300.00003 300.00003"
   version="1.1"
   id="svg1"
   xml:space="preserve"
   xmlns="http://www.w3.org/2000/svg"
   xmlns:svg="http://www.w3.org/2000/svg"><defs
     id="defs1" /><g
     id="layer1"
     transform="translate(-627.03181,-611.75541)"><g
       id="g13"
       transform="translate(7.0809537,190.29366)"><rect
         style="opacity:0;fill:#ffffff;stroke-width:6.76022"
         id="rect11"
         width="300"
         height="300"
         x="619.95087"
         y="421.46179" /><path
         style="fill:#000000;stroke-width:1.95096"
         d="m 642.98227,714.2521 v -7.20985 l 14.58241,-0.27314 14.58241,-0.27311 3.87144,-0.86508 c 2.12928,-0.4758 5.00783,-1.48105 6.39675,-2.23392 l 2.52531,-1.36886 1.19172,-1.81373 c 0.65544,-0.99756 1.42974,-2.85901 1.72065,-4.1366 l 0.52892,-2.32285 V 571.41757 449.0802 l -0.52892,-2.32285 c -0.29091,-1.27759 -1.09929,-3.19056 -1.79641,-4.25108 l -1.2675,-1.92823 -2.44954,-1.23364 c -1.34726,-0.6785 -4.1917,-1.64908 -6.32098,-2.15682 l -3.87144,-0.92319 -14.45335,-0.30258 -14.45336,-0.30257 -0.14359,-7.09873 -0.14359,-7.09872 120.91783,0.13013 120.91784,0.13013 6.05581,48.26389 c 3.33072,26.54515 6.06663,48.90268 6.07984,49.68342 l 0.024,1.41954 h -5.58016 -5.58015 l -1.16258,-9.16241 c -6.86718,-54.12111 -22.16491,-71.76577 -65.46091,-75.50373 l -6.6135,-0.57096 -38.19817,0.16173 -38.19815,0.16174 -2.19575,0.96014 c -1.20764,0.52809 -2.75487,1.62466 -3.43829,2.43685 l -1.24255,1.47668 -0.56219,2.62144 -0.5622,2.62143 v 59.13429 59.1343 l 24.90624,-0.2493 24.90625,-0.24929 4.73429,-0.8345 c 2.60387,-0.45899 6.57095,-1.4147 8.81574,-2.12384 l 4.08141,-1.28931 3.07413,-1.9869 c 9.2654,-5.98853 13.10495,-17.23232 13.10495,-38.37672 v -6.62084 h 5.67811 5.67811 v 58.32962 58.32964 h -5.67811 -5.67811 v -6.91389 c 0,-12.77761 -1.52889,-22.12911 -4.66701,-28.54572 l -1.56385,-3.19762 -2.23847,-2.30323 c -4.34257,-4.46816 -9.81569,-6.9922 -18.88881,-8.71095 l -5.42002,-1.02674 -25.43516,-0.25446 -25.43517,-0.25446 0.14183,58.76884 0.14184,58.76883 1.23581,2.51046 1.23582,2.51046 2.3597,1.49648 c 2.70267,1.71398 4.36723,2.26438 10.1382,3.35239 l 4.12954,0.77853 18.19575,0.28639 18.19574,0.28638 v 7.21057 7.21057 l -1.9357,-0.3118 c -10.30722,-1.66025 -126.79627,-1.66163 -137.04884,-0.002 l -1.93572,0.31342 z"
         id="path13" /></g></g></svg>
