<?xml version="1.0" encoding="UTF-8" standalone="no"?>
<!-- Created with Inkscape (http://www.inkscape.org/) -->

<svg
   width="178.09781mm"
   height="178.09769mm"
   viewBox="0 0 178.09781 178.09769"
   version="1.1"
   id="svg1"
   xml:space="preserve"
   xmlns="http://www.w3.org/2000/svg"
   xmlns:svg="http://www.w3.org/2000/svg"><defs
     id="defs1" /><g
     id="layer1"
     transform="translate(-474.52198,-193.88075)"><g
       id="g66"
       transform="translate(459.80531,129.18445)"><rect
         style="fill:#b6d5f6;fill-opacity:1;stroke-width:1.91482"
         id="rect53"
         width="178.09399"
         height="178.09399"
         x="14.71857"
         y="64.699997"
         ry="42.618046" /><path
         d="m 58.059505,64.696309 c -24.010773,0 -43.341024,19.329734 -43.341024,43.340511 v 44.10997 c -0.03462,-2.33854 0.783818,-3.85695 2.556434,-4.74028 1.657918,-0.82617 2.98609,-0.85788 4.719608,-0.11214 0.722629,0.31087 1.349577,0.51922 1.393197,0.46302 0.0436,-0.0562 0.407023,-1.05482 0.807702,-2.21899 1.924768,-5.59229 5.008402,-10.80084 8.175729,-13.80949 4.217145,-4.00589 6.850594,-5.55512 11.690759,-6.87865 3.552126,-0.97133 8.113653,-1.01779 11.495939,-0.11679 3.092857,0.8239 6.902234,2.84438 9.353951,4.96146 2.281088,1.96974 5.740735,6.71716 5.740735,7.87755 0,0.36964 -0.462168,1.38745 -1.027327,2.26188 -0.62685,0.96985 -1.256936,2.44403 -1.615406,3.77961 -0.323189,1.20415 -0.674938,2.34806 -0.781347,2.54197 -0.12695,0.23133 -0.887647,-0.81499 -2.212785,-3.04271 -2.739108,-4.60475 -4.450181,-6.60177 -7.275008,-8.49044 -3.147887,-2.10468 -4.666375,-2.55052 -8.084261,-2.3735 -1.476179,0.0765 -3.279392,0.32584 -4.006991,0.55397 -2.814377,0.8824 -7.517451,4.66163 -9.712069,7.80469 -0.443489,0.63516 -1.67951,2.95688 -2.747119,5.15938 -1.067619,2.2025 -2.183002,4.3616 -2.478402,4.79816 -0.295399,0.43657 -0.538025,1.01763 -0.538985,1.29087 -0.003,0.75067 3.828977,8.98277 5.371765,11.54142 0.7656,1.26972 2.234379,3.14109 3.373438,4.29741 1.633998,1.65876 2.44042,2.24492 4.242118,3.08302 3.959106,1.84165 7.068526,2.02904 11.316622,0.68316 3.509147,-1.11177 5.584022,-2.76654 8.285799,-6.60838 1.817658,-2.58467 6.631407,-13.25048 8.597925,-19.05 0.49344,-1.4552 1.418126,-4.01506 2.054655,-5.68855 0.636529,-1.67348 1.821855,-5.06677 2.634465,-7.54062 2.396597,-7.29603 3.187389,-9.36338 5.015197,-13.11341 2.940767,-6.03343 4.024758,-7.57199 8.377784,-11.88972 5.251974,-5.20939 11.698427,-7.45505 18.234547,-6.35258 2.33949,0.3946 6.16167,2.2412 8.85062,4.27623 5.19844,3.93425 9.98433,12.1327 13.80019,23.6399 2.17734,6.56603 3.8563,11.38913 4.74338,13.62604 0.49052,1.23692 1.30963,3.32053 1.82005,4.63021 0.51042,1.30969 1.30974,3.21468 1.77611,4.23333 0.46639,1.01864 1.31157,3.10224 1.87793,4.63021 2.26977,6.12352 6.8663,12.46824 10.63191,14.67455 2.56951,1.50553 6.45482,1.87917 10.00765,0.96274 3.05677,-0.78848 4.0764,-1.42545 6.97322,-4.35839 3.01248,-3.05006 4.30487,-5.08059 6.6182,-10.39523 0.81322,-1.86829 1.77411,-3.90383 2.13527,-4.52324 l 0.65681,-1.12603 -0.65371,-0.85835 c -0.35946,-0.472 -1.25703,-2.28826 -1.99471,-4.03593 -2.30421,-5.45897 -3.31244,-6.93627 -7.64087,-11.19725 -2.96856,-2.92229 -3.76529,-3.84654 -3.47421,-4.03076 0.20772,-0.13146 0.46282,-0.24116 0.56689,-0.24339 0.10408,-0.002 0.62911,-0.38975 1.16634,-0.86145 1.02793,-0.90254 1.93634,-2.57128 1.94613,-3.57446 0.003,-0.32742 0.0769,-0.59531 0.16381,-0.59531 0.0869,0 1.12873,0.50131 2.31511,1.11363 2.46923,1.27441 5.30817,4.0254 7.91114,7.66619 1.3089,1.83077 5.27483,9.45598 6.46473,12.42974 l 0.38757,0.96893 1.1777,-0.5209 c 1.27925,-0.56587 3.27496,-0.68979 4.36305,-0.27078 0.8899,0.3427 1.96544,1.634 2.36213,2.836 0.12134,0.36767 0.17878,0.75565 0.18293,1.1529 v -43.43042 c 0,-24.010777 -19.32973,-43.340511 -43.34051,-43.340511 z"
         style="fill:#eef1e9;fill-opacity:1;stroke-width:1.93099"
         id="path53" /><path
         style="fill:#232f37;fill-opacity:1"
         d="m 154.87083,131.20197 c -1.03502,-0.31339 -1.8308,-0.84872 -3.22236,-2.16773 -2.14209,-2.0304 -2.54172,-2.99405 -2.53681,-6.11719 0.003,-1.61044 0.14359,-2.29108 0.74852,-3.61191 0.40996,-0.89515 1.06183,-1.93056 1.44858,-2.30092 1.95978,-1.87671 6.0483,-2.55531 8.90448,-1.47794 1.79128,0.67569 3.93598,2.64677 4.76269,4.37714 1.13701,2.37987 0.74067,5.80761 -0.93051,8.04751 -1.08022,1.44781 -1.13919,1.4946 -3.44735,2.73477 -1.72311,0.92582 -3.76632,1.11 -5.72724,0.51627 z"
         id="path54" /><path
         style="fill:#232f37;fill-opacity:1"
         d="m 140.34815,146.28263 c -0.10144,-0.55456 -0.8821,-2.56864 -1.7348,-4.47573 -0.8527,-1.90709 -1.55036,-3.68159 -1.55036,-3.94332 0,-1.28082 4.3086,-7.53419 6.12644,-8.89175 0.48676,-0.36351 1.5101,-1.04 2.27408,-1.50332 l 1.38906,-0.84241 v 0.73525 c 0,1.43151 1.07747,3.03568 2.57969,3.84072 0.76399,0.40942 1.38906,0.90035 1.38906,1.09096 0,0.19061 -1.04179,1.3021 -2.3151,2.46998 -2.48264,2.27709 -4.29757,4.97504 -6.78573,10.08724 l -1.1879,2.44067 z"
         id="path55" /><path
         style="fill:#232f37;fill-opacity:1"
         d="m 37.406006,155.78564 c -1.54935,-1.24141 -2.16254,-3.91286 -1.28684,-5.60629 0.87149,-1.68527 2.87047,-2.50592 4.3015,-1.7659 1.17814,0.60923 1.53283,1.82377 1.43079,4.89944 -0.0748,2.25533 -2.81471,3.77938 -4.44545,2.47275 z"
         id="path56" /><path
         style="fill:#232f37;fill-opacity:1"
         d="m 145.85684,156.11855 c -0.82548,-0.59016 -1.65031,-2.30113 -1.8265,-3.78875 -0.19078,-1.61084 0.39654,-3.03411 1.54954,-3.75503 2.11867,-1.32471 4.44474,0.47893 4.44474,3.44644 0,2.9001 -2.45986,5.31839 -4.16778,4.09734 z"
         id="path57" /><path
         style="fill:#232f37;fill-opacity:1"
         d="m 59.386616,156.02025 c -0.44821,-0.27332 -1.01376,-0.91594 -1.25677,-1.42806 -0.53691,-1.13145 -0.57354,-3.33109 -0.0753,-4.52347 0.37799,-0.90465 1.8534,-2.01622 2.67619,-2.01622 0.88856,0 2.21014,1.07566 2.78787,2.26909 0.96565,1.99478 0.2261,4.51928 -1.66097,5.66984 -1.06955,0.65212 -1.44174,0.65646 -2.47099,0.0288 z"
         id="path58" /><path
         style="fill:#232f37;fill-opacity:1"
         d="m 166.54691,155.89351 -0.90892,-0.90892 v -2.65199 c 0,-2.45943 0.0492,-2.71045 0.67741,-3.45705 0.84309,-1.00195 2.07524,-1.2712 3.36028,-0.73428 2.00723,0.83868 2.61541,3.37577 1.40317,5.85351 -0.74374,1.52014 -1.62434,2.324 -2.87829,2.62744 -0.62072,0.1502 -0.89608,0.0289 -1.65365,-0.72871 z"
         id="path59" /><path
         style="fill:#232f37;fill-opacity:1"
         d="m 47.897466,163.98881 -0.99703,-0.99703 -0.20067,-3.43474 c -0.25399,-4.34739 0.0254,-18.31163 0.38533,-19.25828 0.33652,-0.88512 1.73953,-1.76895 2.81014,-1.77027 0.59498,-7.3e-4 1.08022,0.28028 1.85208,1.07256 l 1.04589,1.07355 -0.0747,10.36968 c -0.044,6.10548 -0.19102,10.88728 -0.35758,11.62837 -0.55491,2.46895 -2.68313,3.09651 -4.46348,1.31616 z"
         id="path60" /><path
         style="fill:#232f37;fill-opacity:1"
         d="m 156.46084,165.12557 c -1.6527,-0.71454 -1.66242,-0.78604 -1.85048,-13.61288 l -0.17051,-11.62954 0.97588,-0.97589 c 0.86127,-0.86126 1.08711,-0.95783 1.92289,-0.8222 1.15914,0.1881 2.05939,0.75433 2.66234,1.67454 0.40762,0.62212 0.46635,1.81802 0.55615,11.32473 0.11125,11.77699 0.0465,12.42553 -1.34354,13.46677 -1.1688,0.87548 -1.76751,1.00043 -2.75273,0.57447 z"
         id="path61" /><path
         style="fill:#232f37;fill-opacity:1"
         d="m 90.981015,177.76295 c -0.38826,-0.24088 -0.95382,-0.879 -1.25678,-1.41804 -0.52319,-0.93089 -0.5509,-1.37003 -0.55241,-8.74926 -8.8e-4,-4.27306 -0.0782,-8.75351 -0.17186,-9.95657 l -0.17027,-2.18738 -0.95263,0.20301 c -2.922169,0.62271 -6.441599,-0.23272 -6.797889,-1.6523 -0.29962,-1.19377 0.61369,-3.27887 1.26097,-2.87883 0.13186,0.0815 1.03869,0.0215 2.01515,-0.1333 0.976469,-0.15481 2.312159,-0.31855 2.968199,-0.36385 0.65603,-0.0453 1.34065,-0.17374 1.52135,-0.28543 0.24724,-0.15281 0.32857,-1.80969 0.32857,-6.69506 0,-7.13829 0.0679,-7.48598 1.64333,-8.41662 1.62966,-0.96267 3.1792,-0.49317 4.0723,1.2339 0.56841,1.09918 0.5478,38.78797 -0.0218,39.88948 -0.88025,1.7022 -2.47996,2.28271 -3.88623,1.41025 z"
         id="path62" /><path
         style="fill:#232f37;fill-opacity:1"
         d="m 113.48395,177.45238 -1.02721,-1.0272 v -19.69069 -19.69068 l 0.93585,-0.90706 c 0.7501,-0.72703 1.13519,-0.90184 1.94015,-0.88073 0.55237,0.0145 1.32795,0.23839 1.72351,0.49757 1.39258,0.91246 1.48556,1.41907 1.48996,8.11859 0.002,3.39058 0.10898,6.3304 0.23722,6.53292 0.17463,0.27577 0.55558,0.32305 1.51731,0.1883 4.22613,-0.59212 4.62574,-0.51078 5.28898,1.07659 0.53143,1.27188 0.0841,3.58031 -0.77437,3.99586 -1.17692,0.56971 -2.74788,0.60075 -4.3989,0.0869 l -1.60971,-0.501 -0.0283,0.96445 c -0.0156,0.53044 -0.10488,5.19668 -0.19844,10.36941 -0.1881,10.40068 -0.16662,10.27662 -1.97041,11.37646 -1.25898,0.76765 -1.96309,0.65284 -3.1256,-0.50968 z"
         id="path63" /><path
         style="fill:#232f37;fill-opacity:1"
         d="m 153.86403,180.46805 c -5.00148,-0.93174 -10.09126,-4.17624 -13.48788,-8.59789 -3.22893,-4.20337 -5.72587,-9.15678 -10.47236,-20.77495 -1.38222,-3.3833 -4.41197,-11.84666 -5.82178,-16.26266 -1.75759,-5.50533 -2.94941,-8.56161 -5.07378,-13.01109 -2.00845,-4.20666 -4.0855,-7.11744 -6.50101,-9.1105 -2.11016,-1.74111 -3.7738,-2.59319 -6.2512,-3.20173 -1.71976,-0.42245 -1.96919,-0.42305 -3.96875,-0.01 -6.542645,1.35262 -11.336265,6.66835 -15.439995,17.12168 -1.60118,4.07863 -4.669969,12.50232 -6.265299,17.19792 -1.80729,5.31948 -5.58358,14.81681 -7.62718,19.18229 -3.91449,8.36202 -8.57508,13.36971 -14.88951,15.99841 -7.99833,3.32972 -18.24389,1.06857 -24.63389,-5.43659 -3.56926,-3.63358 -7.22437,-9.23918 -9.21582,-14.13369 -1.06038,-2.60616 -1.14997,-2.6901 -2.397,-2.24582 -3.83421,1.36602 -7.03678,-0.9027 -7.10076,-5.03023 -0.0363,-2.34239 0.78256,-3.86262 2.55689,-4.74681 1.65792,-0.82617 2.98617,-0.85767 4.71969,-0.11193 0.72263,0.31087 1.34957,0.51922 1.39319,0.46302 0.0436,-0.0562 0.40716,-1.05469 0.80784,-2.21886 1.92477,-5.5923 5.00853,-10.80103 8.17586,-13.80968 4.21715,-4.00589 6.8505,-5.55537 11.69067,-6.8789 3.55213,-0.97133 8.11374,-1.01758 11.49603,-0.11658 3.09286,0.8239 6.90192,2.84433 9.35364,4.96141 2.28109,1.96975 5.74095,6.71739 5.74095,7.87778 0,0.36964 -0.46241,1.38751 -1.02757,2.26194 -0.62685,0.96985 -1.25674,2.44366 -1.61521,3.77924 -0.32319,1.20415 -0.67468,2.34803 -0.78109,2.54194 -0.12695,0.23133 -0.88799,-0.81499 -2.21313,-3.04271 -2.73911,-4.60475 -4.45014,-6.60162 -7.27497,-8.49029 -3.14789,-2.10468 -4.66638,-2.55049 -8.08427,-2.37347 -1.47618,0.0765 -3.27928,0.32567 -4.00688,0.5538 -2.81438,0.8824 -7.51726,4.66186 -9.71188,7.80493 -0.44349,0.63516 -1.67985,2.95688 -2.74746,5.15938 -1.06762,2.2025 -2.18281,4.36173 -2.47821,4.79829 -0.2954,0.43657 -0.53787,1.01732 -0.53883,1.29056 -0.003,0.75067 3.8287,8.98309 5.37149,11.54174 0.7656,1.26972 2.23452,3.14074 3.37358,4.29706 1.634,1.65876 2.44043,2.24482 4.24213,3.08292 3.95911,1.84166 7.0683,2.02948 11.3164,0.6836 3.50915,-1.11177 5.58391,-2.76652 8.28569,-6.60837 1.81766,-2.58467 6.63165,-13.25048 8.59817,-19.05001 0.49344,-1.4552 1.41796,-4.01505 2.05449,-5.68854 0.63653,-1.67349 1.82219,-5.06677 2.6348,-7.54062 2.3966,-7.29604 3.18735,-9.3637 5.01516,-13.11374 2.94077,-6.03343 4.024659,-7.57166 8.377689,-11.88939 5.25198,-5.2094 11.698445,-7.45533 18.234565,-6.35286 2.33949,0.3946 6.16155,2.24135 8.8505,4.27638 5.19844,3.93426 9.98453,12.13281 13.8004,23.64002 2.17734,6.56604 3.85633,11.38914 4.74341,13.62605 0.49052,1.23692 1.30948,3.32052 1.8199,4.6302 0.51042,1.30969 1.30963,3.21469 1.77601,4.23334 0.46639,1.01864 1.31137,3.10224 1.87773,4.63021 2.26978,6.12353 6.86667,12.46803 10.63228,14.67435 2.56952,1.50553 6.4545,1.87933 10.00734,0.9629 3.05677,-0.78848 4.07648,-1.42588 6.9733,-4.35883 3.01248,-3.05006 4.30521,-5.08042 6.61854,-10.39507 0.81322,-1.86829 1.77408,-3.90368 2.13524,-4.52309 l 0.65667,-1.12619 -0.65357,-0.85818 c -0.35946,-0.472 -1.25712,-2.2881 -1.9948,-4.03577 -2.30421,-5.45898 -3.31249,-6.93659 -7.64093,-11.19757 -2.96856,-2.9223 -3.76524,-3.84663 -3.47416,-4.03085 0.20772,-0.13146 0.46284,-0.24084 0.56691,-0.24307 0.10408,-0.002 0.62879,-0.38998 1.16602,-0.86168 1.02793,-0.90254 1.93644,-2.57096 1.94623,-3.57414 0.003,-0.32742 0.0769,-0.59531 0.16385,-0.59531 0.0869,0 1.12872,0.50099 2.3151,1.11331 2.46923,1.27442 5.30835,4.02567 7.91133,7.66647 1.3089,1.83077 5.27463,9.45583 6.46453,12.42959 l 0.38762,0.96875 1.17765,-0.52093 c 1.27925,-0.56587 3.27527,-0.68969 4.36336,-0.27068 0.8899,0.3427 1.96543,1.63398 2.36212,2.83598 0.98162,2.97433 -2.12195,7.26292 -5.25604,7.26292 -0.46821,0 -1.44343,-0.30005 -2.16715,-0.66679 l -1.31586,-0.6668 -0.38007,0.86524 c -0.20904,0.47587 -0.90809,2.19925 -1.55343,3.82973 -1.61164,4.07181 -4.78454,9.17202 -7.40617,11.90488 -3.53645,3.6865 -8.40831,6.54866 -12.98342,7.62762 -1.96582,0.46361 -5.2047,0.46221 -7.70365,-0.003 z"
         id="path64" /><path
         style="fill:#232f37;fill-opacity:1"
         d="m 101.84228,193.32738 -1.02721,-1.0272 -0.0601,-26.82019 c -0.10548,-47.08421 -0.11203,-46.36186 0.42743,-47.18517 0.25907,-0.39539 1.00312,-0.95427 1.65345,-1.24194 1.16651,-0.516 1.19556,-0.51625 2.1605,-0.0184 0.53794,0.27756 1.24597,0.89886 1.57339,1.38067 l 0.59531,0.876 v 36.10662 36.10662 l -0.5725,1.01863 c -0.61116,1.08741 -1.83178,1.83155 -3.00434,1.83155 -0.48213,0 -1.05691,-0.33817 -1.74595,-1.02721 z"
         id="path65" /><path
         style="fill:#232f37;fill-opacity:1"
         d="m 102.40257,209.51183 c -5.441315,-0.54356 -9.841335,-2.77878 -14.037265,-7.13096 -5.001569,-5.18779 -8.044009,-11.185 -12.432049,-24.50574 l -2.073,-6.29301 2.62416,-5.01676 c 1.44329,-2.75922 2.69879,-5.31413 2.79001,-5.67757 0.0912,-0.36344 0.26285,-0.60085 0.3814,-0.52758 0.40536,0.25052 1.55996,4.22595 2.49611,8.59438 0.95736,4.46742 2.989709,11.29111 4.767559,16.00729 2.47859,6.57503 5.84984,11.68316 9.4593,14.33275 3.652235,2.68098 10.243705,2.93361 14.258365,0.54646 1.66561,-0.99038 4.21172,-3.59012 5.69464,-5.81458 3.72299,-5.58471 7.45612,-15.50628 9.23804,-24.55203 0.97034,-4.92585 1.83922,-8.19456 2.17722,-8.19063 0.20877,0.002 0.8128,1.04014 2.77085,4.76032 0.72763,1.38245 1.78686,3.24127 2.35384,4.13072 0.92418,1.4498 1.00065,1.69626 0.73887,2.38125 -0.1606,0.42024 -0.76717,2.37142 -1.34794,4.33595 -0.58077,1.96453 -1.33732,4.52437 -1.68123,5.68854 -1.07154,3.62735 -5.43859,12.79766 -7.62099,16.00321 -2.43086,3.57051 -6.32537,7.02991 -9.84226,8.74264 -3.08814,1.50392 -7.83863,2.47274 -10.71563,2.18535 z"
         id="path66" /></g></g></svg>
