<?xml version="1.0" encoding="UTF-8" standalone="no"?>
<!-- Created with Inkscape (http://www.inkscape.org/) -->

<svg
   width="300.00009mm"
   height="300.00003mm"
   viewBox="0 0 300.00009 300.00003"
   version="1.1"
   id="svg1"
   xml:space="preserve"
   xmlns="http://www.w3.org/2000/svg"
   xmlns:svg="http://www.w3.org/2000/svg"><defs
     id="defs1" /><g
     id="layer1"
     transform="translate(-1082.3235,-613.51957)"><g
       id="g12"
       transform="translate(-1046.9138,831.56212)"><rect
         style="opacity:0;fill:#ffffff;stroke-width:6.76022"
         id="rect1"
         width="300"
         height="300"
         x="2129.2373"
         y="-218.0425" /><path
         style="fill:#000000;stroke-width:1.95875"
         d="m 2182.5605,54.19901 c -7.4517,-2.41363 -11.3287,-8.21855 -10.7636,-16.11598 0.2206,-3.08358 0.9982,-5.068 7.5289,-19.2142 25.2262,-54.64231 42.176,-96.57077 55.2971,-136.78754 3.5757,-10.95926 10.8029,-35.6378 11.4554,-39.11574 l 0.3692,-1.96745 -20.4123,0.2786 c -15.6379,0.2134 -21.5034,0.47632 -25.0768,1.12404 -21.9675,3.98199 -38.8565,16.09099 -54.7279,39.23846 -5.4339,7.92507 -6.9196,9.25239 -10.3565,9.25239 -4.6677,0 -7.1823,-2.48812 -6.5365,-6.46742 0.3569,-2.19907 5.1601,-10.60778 11.3893,-19.93827 22.7212,-34.03295 40.1421,-48.95055 63.082,-54.01727 l 5.4416,-1.20189 h 103.6507 c 97.9333,0 103.8363,0.0511 107.0193,0.9262 3.8588,1.06091 6.4907,2.95264 8.1539,5.86036 0.9308,1.62743 1.1586,2.83567 1.1631,6.16978 0,5.05922 -0.5531,7.20967 -2.7232,10.45695 -2.0297,3.03693 -5.5388,5.46672 -10.143,7.02322 -3.4147,1.15437 -3.7969,1.16787 -40.4792,1.43028 l -37.032,0.2649 -0.6904,3.36864 c -4.3136,21.04616 -7.5175,43.55786 -8.9621,62.96773 -0.6957,9.34736 -0.6854,37.49373 0.02,45.8654 2.1489,25.62155 7.0012,46.33893071 16.1908,69.12865 3.0492,7.56215 3.1066,7.79557 2.8786,11.73255 -0.293,5.06121 -2.0471,8.85582 -5.8535,12.66219 -4.9664,4.96647 -10.9921,7.54503 -17.5837,7.52456 -8.2879,-0.0257 -12.7425,-4.90524 -17.3663,-19.02226 -4.3056,-13.14577 -6.2126,-26.3636393 -6.6087,-45.80315 -0.5247,-25.76263 1.3359,-43.9099 7.9381,-77.42366 2.4008,-12.186923 9.3385,-44.48863 13.1172,-61.07182 1.1586,-5.08558 2.1068,-9.45834 2.1068,-9.71724 0,-0.27693 -12.9078,-0.47071 -31.3543,-0.47071 -17.2449,0 -31.3544,0.0801 -31.3544,0.17785 0,0.0977 -6.283,24.78005 -13.9625,54.84941 -7.6793,30.06938 -16.0686,63.04741 -18.6428,73.28453 -7.7003,30.62244071 -12.2258,46.42472 -17.1234,59.79287 -5.3083,14.48853 -9.1764,20.35975 -15.4493,23.44984 -2.9983,1.47703 -4.0587,1.72129 -7.8826,1.81574 -2.43,0.0599 -5.0013,-0.0797 -5.7139,-0.31052 z"
         id="path12" /></g></g></svg>
